<?xml version="1.0" encoding="utf-8"?>
<!-- Generator: Adobe Illustrator 24.0.1, SVG Export Plug-In . SVG Version: 6.00 Build 0)  -->
<svg version="1.1" id="Capa_1" xmlns="http://www.w3.org/2000/svg" xmlns:xlink="http://www.w3.org/1999/xlink" x="0px" y="0px"
	 viewBox="0 0 512.5 512.5" style="enable-background:new 0 0 512.5 512.5;" xml:space="preserve">
<style type="text/css">
	.st0{fill:#000000;}
</style>
<g>
	<g>
		<path class="st0" d="M319,224.2c-12.9-17.8-27.6-27.9-43.3-27.9h-37.3c-16.1,0-31.3,10.7-44.4,29.5
			c-27.6,39.4-46.2,114.6-46.2,200.7v70.9h218.5v-70.9C366.2,339,347.1,263.3,319,224.2z"/>
	</g>
</g>
<g>
	<g>
		<path class="st0" d="M422,182.1h-31c-18.1,0-35,11.9-49.1,32.1c6.8,9.9,13.2,21.3,19.1,34.3c22.8,50.2,35.3,116.6,35.3,187.6v28.8
			h116v-84C512.2,271.1,471.8,182.1,422,182.1z"/>
	</g>
</g>
<g>
	<g>
		<path class="st0" d="M121.6,182.1h-31c-49.8,0-90.3,89.1-90.3,198.6v84h117.5v-28.8c0-70.8,12.5-137.5,35.3-187.6
			c5.7-12.5,11.8-23.5,18.3-33.2C157.1,194.1,139.9,182.1,121.6,182.1z"/>
	</g>
</g>
<g>
	<g>
		<path class="st0" d="M406.5,40.2c-0.2,0-0.3,0-0.5,0c-33.6,0.3-60.6,29.3-60.3,64.7c0.3,35.2,27.6,63.7,60.9,63.7
			c0.2,0,0.3,0,0.5,0c16.5-0.1,31.8-7.1,43.2-19.5c11.2-12.2,17.2-28.2,17.1-45.1C467,68.7,439.8,40.2,406.5,40.2z"/>
	</g>
</g>
<g>
	<g>
		<path class="st0" d="M106.1,40.2c-0.2,0-0.3,0-0.5,0C72,40.5,45,69.6,45.3,104.9c0.3,35.2,27.6,63.7,60.9,63.7c0.2,0,0.3,0,0.5,0
			c16.5-0.1,31.8-7.1,43.2-19.5c11.2-12.2,17.2-28.2,17.1-45.1C166.6,68.7,139.4,40.2,106.1,40.2z"/>
	</g>
</g>
<g>
	<g>
		<path class="st0" d="M257,30.2c-38.7,0-70.2,33.3-70.2,74.1c0,29.5,16.4,55.1,40.2,67c9.1,4.6,19.3,7.1,30,7.1
			c10.7,0,20.9-2.5,30-7.1c23.7-11.9,40.2-37.5,40.2-67C327.1,63.5,295.8,30.2,257,30.2z"/>
	</g>
</g>
</svg>
