<?xml version="1.0" encoding="utf-8"?>
<!-- Generator: Adobe Illustrator 24.0.1, SVG Export Plug-In . SVG Version: 6.00 Build 0)  -->
<svg version="1.1" fill="#000000" id="Capa_1" xmlns="http://www.w3.org/2000/svg" xmlns:xlink="http://www.w3.org/1999/xlink" x="0px" y="0px"
	 viewBox="0 0 512 478" style="enable-background:new 0 0 512 478;" xml:space="preserve">
<path d="M333.2,98C304.3,39,243.8,0,176,0C79,0,0,78.5,0,175c0,26.2,5.6,51.4,16.7,74.8L0.3,332.1c-2.1,10.5,7.1,19.7,17.6,17.7
	l83.3-16.5c11.2,5.3,22.8,9.4,34.7,12.2C109.2,218.9,205.1,100.1,333.2,98z"/>
<path d="M511.7,460l-16.5-82.3c2.9-6.1,5.4-12.2,7.5-18.5h-0.5c37.4-109.9-41.3-225.4-157.6-231.1c0,0,0,0,0,0
	c-100-4.6-183.1,75.5-183.1,174.8c0,96.4,78.4,174.9,174.7,175c26.1,0,51.2-5.7,74.6-16.7c91.2,18,84.1,16.7,86.2,16.7
	C506.5,478,513.6,469.3,511.7,460z M252,325.5c-12.4,0-22.5-10.1-22.5-22.5s10.1-22.5,22.5-22.5c12.4,0,22.5,10.1,22.5,22.5
	S264.4,325.5,252,325.5z M336.8,325.5c-12.4,0-22.5-10.1-22.5-22.5s10.1-22.5,22.5-22.5c12.4,0,22.5,10.1,22.5,22.5
	S349.2,325.5,336.8,325.5z M420.6,325.5c-12.4,0-22.5-10.1-22.5-22.5s10.1-22.5,22.5-22.5s22.5,10.1,22.5,22.5
	S433.1,325.5,420.6,325.5z"/>
</svg>
