<svg  viewBox="-21 -21 682.66668 682"  xmlns="http://www.w3.org/2000/svg"><path d="m639.964844 315.488281c-1.257813-84.816406-35.078125-164.148437-95.234375-223.367187-60.121094-59.195313-139.921875-91.789063-224.730469-91.789063-.03125 0-.070312 0-.097656 0-85.441406.027344-165.761719 33.3125-226.175782 93.726563-60.417968 60.414062-93.7031245 140.738281-93.726562 226.175781-.0234375 84.839844 32.574219 164.6875 91.785156 224.828125 59.21875 60.15625 138.550782 93.976562 223.367188 95.234375 1.183594.015625 2.371094.03125 3.554687.035156h.371094c27 0 52.492187-11.726562 69.992187-32.210937 17.792969-20.832032 25.46875-48.398438 21.054688-75.644532-1.054688-6.496093-1.503906-13.164062-1.339844-19.820312.664063-27.207031 11.742188-52.898438 31.191406-72.347656 19.445313-19.449219 45.144532-30.527344 72.347657-31.195313 6.65625-.164062 13.324219.285157 19.824219 1.339844 27.234374 4.414063 54.8125-3.253906 75.644531-21.046875 20.574219-17.585938 32.3125-43.230469 32.207031-70.378906-.003906-1.175782-.019531-2.363282-.035156-3.539063zm-493.191406-123.15625c31.0625 0 56.25 25.183594 56.25 56.25 0 31.0625-25.1875 56.246094-56.25 56.246094-31.066407 0-56.25-25.183594-56.25-56.246094 0-31.066406 25.183593-56.25 56.25-56.25zm0 256.003907c-31.066407 0-56.25-25.179688-56.25-56.25 0-31.066407 25.183593-56.25 56.25-56.25 31.0625 0 56.25 25.183593 56.25 56.25 0 31.070312-25.1875 56.25-56.25 56.25zm101.472656 101.472656c-31.0625 0-56.25-25.179688-56.25-56.25 0-31.0625 25.1875-56.25 56.25-56.25 31.066406 0 56.25 25.1875 56.25 56.25 0 31.070312-25.183594 56.25-56.25 56.25zm0-346.453125c-31.0625 0-56.25-25.179688-56.25-56.25 0-31.0625 25.1875-56.25 56.25-56.25 31.066406 0 56.25 25.1875 56.25 56.25 0 31.070312-25.183594 56.25-56.25 56.25zm143.507812 0c-31.066406 0-56.25-25.179688-56.25-56.25 0-31.0625 25.183594-56.25 56.25-56.25s56.25 25.1875 56.25 56.25c0 31.070312-25.1875 56.25-56.25 56.25zm101.472656 101.472656c-31.0625 0-56.25-25.183594-56.25-56.246094 0-31.066406 25.1875-56.25 56.25-56.25 31.070313 0 56.25 25.183594 56.25 56.25 0 31.0625-25.179687 56.246094-56.25 56.246094zm0 0"/></svg>