<?xml version="1.0" encoding="iso-8859-1"?>
<!-- Generator: Adobe Illustrator 19.0.0, SVG Export Plug-In . SVG Version: 6.00 Build 0)  -->
<svg fill="#0E79B2" version="1.1" id="Capa_1" xmlns="http://www.w3.org/2000/svg" xmlns:xlink="http://www.w3.org/1999/xlink" x="0px" y="0px"
	 viewBox="0 0 479.944 479.944" style="enable-background:new 0 0 479.944 479.944;" xml:space="preserve">
<g>
	<g>
		<path d="M239.972,80c-13.255,0-24,10.745-24,24c0.011,12.068,8.982,22.251,20.952,23.784c1.011,0.132,2.029,0.204,3.048,0.216
			c1.027-0.013,2.053-0.085,3.072-0.216c6.564-0.834,12.488-4.354,16.36-9.72c2.979-4.083,4.579-9.01,4.568-14.064
			C263.972,90.745,253.227,80,239.972,80z M246.444,108.68c-1.281,1.75-3.219,2.905-5.368,3.2c-0.726,0.08-1.458,0.08-2.184,0
			c-2.171-0.296-4.126-1.47-5.408-3.248c-0.99-1.341-1.52-2.965-1.512-4.632c0-4.418,3.582-8,8-8s8,3.582,8,8
			C247.984,105.684,247.447,107.327,246.444,108.68z"/>
	</g>
</g>
<g>
	<g>
		<path d="M375.972,264h-37.336l-42.664-159.272c0-0.248,0-0.48,0-0.728c-0.037-18.269-8.998-35.366-24-45.792V24
			c0-13.255-10.745-24-24-24h-16c-13.255,0-24,10.745-24,24v34.208c-15.002,10.426-23.963,27.523-24,45.792c0,0.248,0,0.48,0,0.728
			L141.308,264h-37.336c-4.418,0-8,3.582-8,8s3.582,8,8,8h33.048l-26.856,100.168c-7.176,26.866,6.45,54.928,32,65.904l-6.4,23.8
			c-1.145,4.267,1.387,8.655,5.654,9.799c0.001,0,0.001,0,0.002,0c0.676,0.18,1.372,0.271,2.072,0.272
			c3.621,0,6.79-2.431,7.728-5.928L203.252,280h28.72v24c0,4.418,3.582,8,8,8s8-3.582,8-8v-24h28.72l52,194.016
			c0.938,3.497,4.107,5.928,7.728,5.928c0.7-0.001,1.396-0.092,2.072-0.272c4.268-1.144,6.8-5.531,5.656-9.798
			c0-0.001,0-0.001,0-0.002l-6.4-23.8c25.55-10.976,39.176-39.038,32-65.904L342.924,280h33.048c4.418,0,8-3.582,8-8
			S380.39,264,375.972,264z M231.972,16h16c4.418,0,8,3.582,8,8v26.4c-1.552-0.472-3.2-0.736-4.744-1.072
			c-0.76-0.152-1.488-0.376-2.248-0.504c-5.954-1.051-12.046-1.051-18,0c-0.8,0.136-1.6,0.376-2.4,0.544
			c-1.536,0.328-3.104,0.576-4.592,1.032L223.972,24C223.972,19.582,227.554,16,231.972,16z M219.892,69.456
			c2.17-1.257,4.452-2.309,6.816-3.144c3.355-1.163,6.855-1.858,10.4-2.064c0.944-0.072,1.872-0.248,2.824-0.248
			c7.063,0.045,13.994,1.925,20.112,5.456c12.404,7.221,20.004,20.519,19.928,34.872c-0.056,0.336-0.088,0.675-0.096,1.016
			c-0.567,18.246-13.441,33.781-31.264,37.728c-5.709,1.248-11.619,1.248-17.328,0c-17.823-3.947-30.697-19.482-31.264-37.728
			c0.008-0.449-0.008-0.897-0.048-1.344C199.964,89.753,207.557,76.585,219.892,69.456z M146.372,430.464
			c-16.981-8.521-25.645-27.796-20.744-46.152L153.572,280h33.12L146.372,430.464z M190.98,264h-33.112l34.824-129.968
			c0.728,1.144,1.6,2.16,2.4,3.248c0.8,1.088,1.512,2.16,2.4,3.16c1.112,1.304,2.4,2.464,3.584,3.656
			c0.912,0.888,1.76,1.824,2.736,2.64c1.36,1.152,2.848,2.144,4.312,3.16c1,0.696,1.936,1.456,2.984,2.088
			c1.6,0.952,3.296,1.72,4.984,2.52c1.072,0.504,2.08,1.088,3.2,1.528c0.184,0.072,0.344,0.184,0.528,0.256L190.98,264z
			 M247.972,264v-24c0-4.418-3.582-8-8-8s-8,3.582-8,8v24H207.54l27.936-104.24c1.496,0.12,2.984,0.24,4.496,0.24s3-0.12,4.496-0.24
			L272.404,264H247.972z M260.1,156.288c0.168-0.064,0.32-0.168,0.488-0.232c1.296-0.512,2.488-1.192,3.728-1.792
			c1.496-0.728,3.024-1.4,4.44-2.248c1.192-0.712,2.264-1.6,3.392-2.4c1.328-0.936,2.68-1.824,3.912-2.872
			c1.064-0.896,1.992-1.912,2.976-2.88c1.144-1.12,2.32-2.208,3.36-3.424c0.904-1.048,1.664-2.2,2.488-3.312
			c0.824-1.112,1.648-2.024,2.352-3.128l34.832,130h-33.104L260.1,156.288z M354.324,384.32
			c4.898,18.356-3.769,37.629-20.752,46.144L293.252,280h33.12L354.324,384.32z"/>
	</g>
</g>
<g>
</g>
<g>
</g>
<g>
</g>
<g>
</g>
<g>
</g>
<g>
</g>
<g>
</g>
<g>
</g>
<g>
</g>
<g>
</g>
<g>
</g>
<g>
</g>
<g>
</g>
<g>
</g>
<g>
</g>
</svg>
