<?xml version="1.0" encoding="iso-8859-1"?>
<!-- Generator: Adobe Illustrator 19.0.0, SVG Export Plug-In . SVG Version: 6.00 Build 0)  -->
<svg fill= "#BF1363" version="1.1" id="Layer_1" xmlns="http://www.w3.org/2000/svg" xmlns:xlink="http://www.w3.org/1999/xlink" x="0px" y="0px"
	 viewBox="0 0 512 512" style="enable-background:new 0 0 512 512;" xml:space="preserve">
<g>
	<g>
		<path d="M440.456,76.836H71.544C32.095,76.836,0,108.93,0,148.38V286.55c0,0,0,0.007,0,0.011v41.821v0.005c0,0,0,0.007,0,0.011
			v35.222c0,39.449,32.094,71.543,71.544,71.543h368.912c39.45,0,71.544-32.094,71.544-71.543v-77.07v-0.001V148.38
			C512,108.93,479.906,76.836,440.456,76.836z M16.515,286.547V148.38c0-30.344,24.685-55.029,55.029-55.029h246.074v248.23H71.544
			c-3.132,0-6.2-0.277-9.191-0.783c-21.454-3.624-38.734-19.694-44.103-40.51c-1.133-4.392-1.735-8.995-1.735-13.736
			C16.515,286.553,16.515,286.548,16.515,286.547z M440.456,418.65H71.544c-26.235,0-48.227-18.459-53.704-43.068
			c13.122,14.913,32.326,24.351,53.704,24.351h368.912c21.378,0,40.584-9.438,53.704-24.352
			C488.683,400.191,466.691,418.65,440.456,418.65z M440.456,383.418H71.544c-28.739,0-52.389-22.15-54.81-50.271
			c0.009-0.046,0.015-0.095,0.024-0.141c9.832,7.311,17.238,15.382,29.122,20.077c17.181,6.788,35.453,5.013,53.508,5.013
			c13.89,0,27.78,0,41.672,0c37.611,0,75.223,0,112.835,0c37.88,0,75.76,0,113.638,0c24.648,0,49.536,1.027,74.152,0.145
			c10.068-0.361,20.037-2.854,29.141-7.153c9.75-4.604,16.099-11.889,24.407-18.094c0.011,0.055,0.019,0.111,0.03,0.165
			C492.837,361.275,469.191,383.418,440.456,383.418z M448.825,340.946c-2.729,0.418-5.525,0.635-8.37,0.635H334.132V93.351h106.323
			c30.344,0,55.029,24.687,55.029,55.029v138.172h0.001C495.485,314.05,475.21,336.902,448.825,340.946z"/>
	</g>
</g>
<g>
</g>
<g>
</g>
<g>
</g>
<g>
</g>
<g>
</g>
<g>
</g>
<g>
</g>
<g>
</g>
<g>
</g>
<g>
</g>
<g>
</g>
<g>
</g>
<g>
</g>
<g>
</g>
<g>
</g>
</svg>
