<?xml version="1.0" encoding="utf-8"?>
<!-- Generator: Adobe Illustrator 24.0.1, SVG Export Plug-In . SVG Version: 6.00 Build 0)  -->
<svg version="1.1" id="Layer_1" xmlns="http://www.w3.org/2000/svg" xmlns:xlink="http://www.w3.org/1999/xlink" x="0px" y="0px"
	 viewBox="0 0 512 512" style="enable-background:new 0 0 512 512;" xml:space="preserve">
<style type="text/css">
	.st0{fill:#20A3F2;}
</style>
<path class="st0" d="M445.5,0H76.5C37.1,0,5,25.2,5,56.2v108.5c0,0,0,0,0,0v32.8v0c0,0,0,0,0,0v27.6c0,31,32.1,56.2,71.5,56.2h368.9
	c39.5,0,71.5-25.2,71.5-56.2v-60.5v0V56.2C517,25.2,484.9,0,445.5,0z M21.5,164.6V56.2c0-23.8,24.7-43.2,55-43.2h246.1v194.8H76.5
	c-3.1,0-6.2-0.2-9.2-0.6c-21.5-2.8-38.7-15.5-44.1-31.8C22.1,171.9,21.5,168.3,21.5,164.6C21.5,164.6,21.5,164.6,21.5,164.6z
	 M445.5,268.3H76.5c-26.2,0-48.2-14.5-53.7-33.8c13.1,11.7,32.3,19.1,53.7,19.1h368.9c21.4,0,40.6-7.4,53.7-19.1
	C493.7,253.8,471.7,268.3,445.5,268.3z M445.5,240.6H76.5c-28.7,0-52.4-17.4-54.8-39.5c0,0,0-0.1,0-0.1c9.8,5.7,17.2,12.1,29.1,15.8
	c17.2,5.3,35.5,3.9,53.5,3.9c13.9,0,27.8,0,41.7,0c37.6,0,75.2,0,112.8,0c37.9,0,75.8,0,113.6,0c24.6,0,49.5,0.8,74.2,0.1
	c10.1-0.3,20-2.2,29.1-5.6c9.8-3.6,16.1-9.3,24.4-14.2c0,0,0,0.1,0,0.1C497.8,223.3,474.2,240.6,445.5,240.6z M453.8,207.3
	c-2.7,0.3-5.5,0.5-8.4,0.5H339.1V13h106.3c30.3,0,55,19.4,55,43.2v108.5h0C500.5,186.2,480.2,204.1,453.8,207.3z"/>
<path d="M432,500.3H65c-35.9,0-65-29.1-65-65v-79c0-35.9,29.1-65,65-65h367c35.9,0,65,29.1,65,65v79
	C497,471.2,467.9,500.3,432,500.3z"/>
<rect x="314.4" y="291.3" class="st0" width="36.5" height="209"/>
</svg>
