<?xml version="1.0" encoding="utf-8"?>
<!-- Generator: Adobe Illustrator 24.0.1, SVG Export Plug-In . SVG Version: 6.00 Build 0)  -->
<svg version="1.1" id="e7b3b0c3-1e4f-480c-906c-c03021e90d10"
	 xmlns="http://www.w3.org/2000/svg" xmlns:xlink="http://www.w3.org/1999/xlink" x="0px" y="0px" viewBox="0 0 991.1 770.2"
	 style="enable-background:new 0 0 991.1 770.2;" xml:space="preserve">
<style type="text/css">
	.st0{fill:#F2F2F2;}
	.st1{fill:#D4864D;}
	.st2{fill:#3F3D56;}
	.st3{fill:#FFFFFF;}
	.st4{fill:none;stroke:#3F3D56;stroke-width:2;stroke-miterlimit:10;}
	.st5{fill:#6C2F00;}
	.st6{fill:#D0CDE1;}
	.st7{fill:#FF6584;}
	.st8{fill:#FFB8B8;}
	.st9{fill:#2F2E41;}
	.st10{opacity:0.1;enable-background:new    ;}
</style>
<title>professor</title>
<path class="st0" d="M289.6,0L131.7,85.5c11.1,19.2,4.6,43.8-14.6,54.9C98,151.5,73.4,145,62.3,125.8c-0.4-0.7-0.8-1.4-1.1-2.1
	L7.3,152.9l139.4,257.4L429,257.4L289.6,0z"/>
<circle class="st1" cx="94.6" cy="105.7" r="32.6"/>
<path class="st0" d="M686,689.1l170.7-55.7c-7.5-20.9,3.3-43.9,24.2-51.4s43.9,3.3,51.4,24.2c0.3,0.8,0.5,1.5,0.7,2.3l58.2-19
	l-90.8-278.3l-305.2,99.5L686,689.1z"/>
<circle class="st1" cx="896.8" cy="620.2" r="32.6"/>
<rect x="115.5" y="152.7" class="st2" width="788" height="358"/>
<rect x="128.5" y="165.7" class="st3" width="762" height="325"/>
<path class="st2" d="M746.3,475.2h59.4c4,0,7.3,3.3,7.3,7.3v10.4c0,4-3.3,7.3-7.3,7.3h-59.4c-4,0-7.3-3.3-7.3-7.3v-10.4
	C739,478.5,742.3,475.2,746.3,475.2z"/>
<rect x="681" y="494.2" class="st1" width="54" height="7"/>
<path class="st4" d="M511.5,257.7L511.5,257.7z"/>
<path class="st4" d="M623.5,256.7L623.5,256.7z"/>
<path class="st4" d="M623.5,264.7L623.5,264.7z"/>
<path class="st4" d="M828.5,309.7L828.5,309.7z"/>
<path class="st4" d="M809.5,317.7L809.5,317.7z"/>
<path class="st4" d="M584.5,407.7L584.5,407.7z"/>
<ellipse class="st0" cx="168.5" cy="721.9" rx="152" ry="28"/>
<polygon class="st5" points="259.7,449.1 232.6,462.8 234.3,466.3 261.4,452.6 "/>
<rect x="633.8" y="189.2" class="st6" width="141.9" height="135"/>
<rect x="649.9" y="205.3" class="st1" width="109.6" height="83.8"/>
<rect x="649.8" y="299.1" class="st0" width="59.6" height="3.1"/>
<rect x="649.8" y="308.5" class="st0" width="59.6" height="3.1"/>
<circle class="st2" cx="669.4" cy="247.3" r="12.6"/>
<circle class="st0" cx="704.7" cy="247.3" r="12.6"/>
<circle class="st7" cx="740" cy="247.3" r="12.6"/>
<circle class="st2" cx="704.7" cy="197" r="6.3"/>
<rect x="461.9" y="265.2" class="st6" width="141.9" height="135"/>
<rect x="478" y="281.3" class="st1" width="109.6" height="83.8"/>
<ellipse transform="matrix(0.1602 -0.9871 0.9871 0.1602 112.6241 798.3737)" class="st0" cx="525.5" cy="333" rx="26.6" ry="26.6"/>
<path class="st2" d="M533.4,353.6c-18.4,0-33.4-14.9-33.4-33.4s14.9-33.4,33.4-33.4c18.4,0,33.4,14.9,33.4,33.4
	C566.7,338.6,551.8,353.5,533.4,353.6z M533.4,288c-17.8,0-32.2,14.4-32.2,32.2s14.4,32.2,32.2,32.2s32.2-14.4,32.2-32.2l0,0
	C565.5,302.4,551.1,288.1,533.4,288z"/>
<rect x="477.9" y="382.9" class="st0" width="59.6" height="3.1"/>
<rect x="477.9" y="373.5" class="st0" width="83.2" height="3.1"/>
<circle class="st2" cx="532.8" cy="273" r="6.3"/>
<rect x="273.2" y="187.6" class="st6" width="141.9" height="135"/>
<rect x="289.4" y="203.7" class="st1" width="109.6" height="83.8"/>
<rect x="332.4" y="269.4" class="st2" width="23.6" height="7"/>
<rect x="303.9" y="215" class="st2" width="80.6" height="3"/>
<rect x="303.9" y="224.5" class="st2" width="80.6" height="3"/>
<rect x="303.9" y="233.9" class="st2" width="80.6" height="3"/>
<rect x="303.9" y="243.4" class="st2" width="80.6" height="3"/>
<rect x="303.9" y="252.9" class="st2" width="80.6" height="3"/>
<rect x="289.3" y="295.9" class="st0" width="59.6" height="3.1"/>
<rect x="289.3" y="303.8" class="st0" width="83.2" height="3.1"/>
<circle class="st2" cx="344.2" cy="195.5" r="6.3"/>
<path class="st8" d="M227.1,423.4l4.6,13.7c0,0,28.4,33,8,37.5c-20.5,4.6-22.8-35.3-22.8-35.3l-5.7-11.4L227.1,423.4z"/>
<path class="st5" d="M195.2,258.4c0,0,6.8-1.1,9.1,26.2c2.3,27.3,3.4,75.1,3.4,75.1l26.2,67.1l-33,10.2L185,360.8L195.2,258.4z"/>
<polygon class="st8" points="210,664.6 213.4,686.2 182.7,686.2 183.8,664.6 "/>
<polygon class="st8" points="111,688.5 113.3,718.1 92.8,720.3 92.8,686.2 "/>
<path class="st9" d="M197.5,382.4l26.2,150.2l-6.8,136.5h-35.3v-124l-34.1-63.7L120.1,561l-6.8,133.1l-38.7-6.8l9.1-129.7
	c0,0,6.8-172.9,13.7-175.2C104.2,380.1,197.5,382.4,197.5,382.4z"/>
<path class="st9" d="M206.6,679.4c0,0,0-11.4,9.1-4.6c9.1,6.8,20.5,19.3,20.5,19.3s43.2,23.9,12.5,27.3
	c-30.7,3.4-50.1-15.9-50.1-15.9l-3.4,3.4c0,0-18.2-3.4-18.2-8c0.1-3.8,0.5-7.6,1.1-11.4c0,0,2.4-19.3,5.2-15.3
	C186.1,678.2,202,686.2,206.6,679.4z"/>
<path class="st9" d="M91.7,711.2c0,0,20.5-10.2,25-1.1c4.6,9.1,8,27.3,8,27.3s14.8,28.4-11.4,26.2s-25-17.1-25-20.5s1.1-11.4,0-14.8
	C87.1,724.9,91.7,711.2,91.7,711.2z"/>
<circle class="st8" cx="136.6" cy="181.6" r="31.9"/>
<polygon class="st8" points="157.7,196.9 158.8,237.9 117.8,234.5 117.8,196.9 "/>
<path class="st6" d="M115.6,214c0,0,19.3,12.5,25,14.8s18.2-9.1,18.2-9.1s3.4,2.3,3.4,4.6s2.3,11.4,2.3,11.4l27.3,89.9l-2.3,63.7
	c0,0-83.1,8-92.2-2.3c-9.1-10.2,4.6-157,4.6-157L115.6,214z"/>
<path class="st10" d="M121.3,237.9c0,0,30.7,11.4,41,1.1C162.2,239,147.4,242.5,121.3,237.9z"/>
<path class="st5" d="M40.5,484.8C53,492.8,94,503,94,503s4.5-96.3,20.5-111.5c15.9-15.1,41.9-124.1,18.5-143.1
	c-0.1-0.1-0.2-0.2-0.3-0.3L117.8,214c0,0-2.3-3.4-6.8,1.1c-3.7,3.9-7.1,8.1-10.2,12.5l-0.6,0.3L69,240.2L81.5,296
	C81.4,295.9,28,476.8,40.5,484.8z"/>
<path class="st10" d="M100.1,227.9l8.6,31.6l24.2-11.1c-0.1-0.1-0.2-0.2-0.3-0.3L117.8,214c0,0-2.3-3.4-6.8,1.1
	c-3.7,3.9-7.1,8.1-10.2,12.5L100.1,227.9z"/>
<path class="st5" d="M159.4,219.1l3.4,38.7l0.2,1.8L189,507c0,0,22.8-8,30.7-17.1c8-9.1-18.2-110.4-18.2-110.4l-2.3-127.4
	c0,0-20.2-14.2-28.4-22c-1.9-1.8-3.2-3.3-3.4-4.2C166.2,221.4,159.4,219.1,159.4,219.1z"/>
<path class="st10" d="M159.4,219.1l3.4,38.7l0.2,1.8l16.3-2.3l-8.5-27.1c-1.9-1.8-3.2-3.3-3.4-4.2
	C166.2,221.4,159.4,219.1,159.4,219.1z"/>
<path class="st8" d="M98.5,410.9l12.5,11.4c0,0-5.7,23.9-12.5,25c0,0-4.6-6.8-5.7-12.5s-11.4-11.4-11.4-11.4L98.5,410.9z"/>
<path class="st5" d="M83.7,237.9l-14.8,2.3c0,0-48.9,83.1-43.2,112.6s51.2,80.8,51.2,80.8l28.4-22.8L63.2,354l21.6-68.3L83.7,237.9z
	"/>
<path class="st9" d="M168.5,185.2c0,0,0-28.1-6.8-34.5h-8.2c0,0-9.6-14-21.8-8.9s-32.8,14-31.4,28.1c1.4,14,5.6,23.1,5.6,23.1
	s2.3,0,7.3-7.6c6.8-10.2-8.9-7,11.6-10.9c20.5-3.8,32.8-8.9,35.5-3.8S168.5,185.2,168.5,185.2z"/>
<path class="st9" d="M153.7,152.6c0,0-1.1-8.2-5.6-10L153.7,152.6z"/>
<path class="st9" d="M153.7,154.3c0,0,2.3-8-1.1-11.4L153.7,154.3z"/>
</svg>
