<?xml version="1.0" encoding="utf-8"?>
<!-- Generator: Adobe Illustrator 24.0.1, SVG Export Plug-In . SVG Version: 6.00 Build 0)  -->
<svg version="1.1" id="b76d0b57-bb96-4225-9050-c631c36202a0"
	 xmlns="http://www.w3.org/2000/svg" xmlns:xlink="http://www.w3.org/1999/xlink" x="0px" y="0px" viewBox="0 0 374 750.1"
	 style="enable-background:new 0 0 374 750.1;" xml:space="preserve">
<style type="text/css">
	.st0{fill:#3F3D56;}
	.st1{opacity:0.1;enable-background:new    ;}
	.st2{fill:#2F2E41;}
	.st3{fill:#FF6584;}
	.st4{fill:#FFB9B9;}
	.st5{fill:#D4864D;}
</style>
<title>artist</title>
<ellipse transform="matrix(1.215733e-03 -1 1 1.215733e-03 -539.7761 912.6656)" class="st0" cx="187" cy="726.5" rx="23.5" ry="187"/>
<ellipse transform="matrix(1.215733e-03 -1 1 1.215733e-03 -539.7761 912.6656)" class="st1" cx="187" cy="726.5" rx="17.3" ry="138"/>
<path class="st2" d="M124.5,648l3.1,40.9c0,0-22.7,40.3,1.2,39.7s25.8-3.1,25.8-3.1l0-12.6l0-27.1l-6.9-41.6L124.5,648z"/>
<path class="st2" d="M219.6,658.2c0,0,5.6,17,1.2,28.3s-6.3,37.8-3.2,38.4s18.3,3.8,18.3,3.8s36.5,12.6,52.2,7.6
	c15.7-5,13.2-12.6,13.2-12.6s-3.8-10.7-15.7-11.4s-39.6-46-40.2-56.1S219.6,658.2,219.6,658.2z"/>
<circle class="st3" cx="141.3" cy="79.9" r="56"/>
<path class="st4" d="M121.4,116.1c0,0,5,27.7-10.1,35.2c-15.1,7.5,28.3,22.1,28.3,22.1l18.9-5l12-25.8c0,0-15.1-1.3-11.3-23.9
	L121.4,116.1z"/>
<path class="st1" d="M121.4,116.1c0,0,5,27.7-10.1,35.2c-15.1,7.5,28.3,22.1,28.3,22.1l18.9-5l12-25.8c0,0-15.1-1.3-11.3-23.9
	L121.4,116.1z"/>
<path class="st4" d="M63.4,210.5L62,270.9L46.2,374.1c0,0,0.6,53.5,16.9,56.7s0.1-57.3,0.1-57.3l23.7-85.4l4.8-74.4L63.4,210.5z"/>
<circle class="st4" cx="139.4" cy="95" r="35.9"/>
<path class="st5" d="M195.5,274.8c6.3,10.7,4.4,23.3-2.5,23.3S92.9,286.7,92.9,286.7l5.7-21.4c0,0-5.7-8.8-1.9-14.5
	s-3.7-23.3-3.7-23.3l-14.4-68.6l7.6-2.4l12.6-3.9l13.9-4.3c0,0,9.4,13.9,32.7,9.5c0,0,14.5,1.9,22.7-17c1.8,0,3.5,0.3,5.2,0.7
	c1.7,0.5,3.4,1.2,4.2,2.5c0.8,1.3,5.2,2.1,10.2,2.7c7.5,0.9,16.2,1.1,16.2,1.1l-7,69.9C196.8,217.6,189.2,264.1,195.5,274.8z"/>
<path class="st5" d="M83.6,158.9l-5,0c0,0-20.2,16.3-17.7,55.4c0,0,1.9,3.8,16.4,6.3s20.8-3.8,20.8-3.8L83.6,158.9z"/>
<path class="st2" d="M178,204.9c0,0-80.6-5.1-80,4.3s-5.1,30.8-2.6,34.6s5.6,19.3,1.8,26.3c-2.2,4.2-3.9,8.7-5,13.3
	c0,0-5-1.3-8.8,14.5s-22.7,61-15.2,84.3s31.9,171.9,31.9,171.9l16.2,97.6c0,0,27.1,5.1,36.5-5l-8.7-114.6L138,407.6
	c0,0,42,120.9,48.3,124.7L212,660.7c0,0,28.9,10.1,39-6.2l-11.8-93.8c0,0-6.9-18.3-4.4-27.7s-4.4-16.4-4.4-16.4l-25.6-132.9
	c0,0-7.5-15.1-1.2-26.4s-11.3-63-11.3-63s-11.3-26.5-7.5-41.6S178,204.9,178,204.9z"/>
<path class="st4" d="M222.7,196.2l12.5,71.1c0,0,1.9,10.7-3.8,28.3s-27.8,59.8-27.8,59.8l-11.3-20.2l19-64.2l-15.6-74.9L222.7,196.2
	z"/>
<polygon class="st2" points="110.6,205.5 98.9,211.5 86.1,174.6 86.1,156.5 98.7,152.6 100.6,167.7 "/>
<path class="st2" d="M187.6,146.6l-10.3,60.6l-16.4,0l12.2-65.7c1.7,0.5,3.4,1.2,4.2,2.5C178.2,145.1,182.6,146,187.6,146.6z"/>
<path class="st5" d="M196.3,151.5l7.6-3.8c0,0,32.1,38.4,22.6,54.2s-37.1,5.6-37.1,5.6L196.3,151.5z"/>
<circle class="st3" cx="147" cy="23.9" r="23.9"/>
<ellipse transform="matrix(1.215733e-03 -1 1 1.215733e-03 80.0844 198.5092)" class="st3" cx="139.4" cy="59.2" rx="18.3" ry="30.8"/>
<circle class="st5" cx="104.6" cy="212.1" r="3.1"/>
<circle class="st5" cx="172" cy="212.2" r="3.1"/>
</svg>
