<?xml version="1.0" encoding="utf-8"?>
<!-- Generator: Adobe Illustrator 24.0.1, SVG Export Plug-In . SVG Version: 6.00 Build 0)  -->
<svg version="1.1" id="圖層_1" xmlns="http://www.w3.org/2000/svg" xmlns:xlink="http://www.w3.org/1999/xlink" x="0px" y="0px"
	 viewBox="0 0 241.97 147.84" style="enable-background:new 0 0 241.97 147.84;" xml:space="preserve">
<!-- <g> -->
	<g class="drawLine">
		<path class ="drawCircle" d="M80.26,116.08c-6.57-4.16-13.13-8.34-19.44-12.89c-1.55-1.12-3.09-2.26-4.61-3.43c0.78,0.6-0.18-0.14-0.44-0.35
			c-0.38-0.3-0.75-0.59-1.12-0.89c-0.8-0.64-1.59-1.29-2.38-1.95c-2.98-2.51-5.86-5.14-8.58-7.93c-1.34-1.38-2.64-2.79-3.9-4.24
			c-0.63-0.73-1.25-1.47-1.86-2.22c-0.26-0.32-0.52-0.65-0.78-0.97c-0.58-0.73-0.09-0.12,0.02,0.03c-0.17-0.22-0.34-0.44-0.5-0.66
			c-2.43-3.25-4.69-6.66-6.42-10.34c-0.13-0.28-0.63-1.47-0.29-0.6c-0.19-0.47-0.37-0.94-0.54-1.42c-0.36-1.02-0.68-2.06-0.93-3.11
			c-0.1-0.42-0.19-0.84-0.27-1.27c-0.05-0.28-0.1-0.57-0.14-0.85c0.01,0.07,0.08,0.85,0.04,0.26c-0.07-1.09-0.16-2.15-0.11-3.24
			c0.02-0.5,0.07-1,0.12-1.5c0.05-0.59-0.02,0.23-0.03,0.29c0.06-0.27,0.1-0.55,0.15-0.83c0.2-0.96,0.46-1.9,0.77-2.83
			c0.16-0.46,0.34-0.91,0.51-1.37c0.27-0.7-0.36,0.7-0.01,0.04c0.1-0.18,0.18-0.38,0.27-0.57c0.45-0.94,0.96-1.85,1.5-2.74
			c0.51-0.82,1.05-1.62,1.62-2.4c0.12-0.16,0.24-0.32,0.36-0.48c-0.1,0.14-0.63,0.79-0.05,0.07c0.29-0.36,0.58-0.71,0.88-1.06
			c1.22-1.42,2.54-2.77,3.94-4.02c0.67-0.6,1.36-1.17,2.05-1.74c0.74-0.61-0.57,0.41,0.2-0.16c0.41-0.3,0.82-0.61,1.24-0.9
			c1.52-1.07,3.09-2.05,4.7-2.96c1.56-0.88,3.16-1.7,4.79-2.46c0.41-0.19,0.82-0.38,1.23-0.56c0.18-0.08,1.43-0.62,0.82-0.36
			c-0.6,0.26,0.69-0.28,0.83-0.34c0.48-0.19,0.96-0.38,1.44-0.56c3.35-1.29,6.78-2.39,10.23-3.39c7.59-2.21,15.3-4.04,23.08-5.49
			c1.93-0.36,3.86-0.7,5.8-1.01c0.97-0.16,1.94-0.31,2.91-0.45c0.49-0.07,0.97-0.14,1.46-0.21c0.21-0.03,0.42-0.06,0.62-0.09
			c1.35-0.19-0.66,0.08,0.13-0.02c3.96-0.5,7.92-0.93,11.9-1.23c7.92-0.59,15.87-0.73,23.8-0.33c3.87,0.19,7.74,0.51,11.59,0.97
			c0.48,0.06,0.96,0.12,1.44,0.18c0.16,0.02,1.04,0.14,0.36,0.05c-0.64-0.08,0.06,0.01,0.16,0.02c1.03,0.15,2.05,0.3,3.07,0.46
			c1.91,0.3,3.81,0.64,5.7,1.02c7.71,1.52,15.31,3.64,22.67,6.4c0.91,0.34,1.81,0.69,2.71,1.05c0.45,0.18,0.9,0.36,1.35,0.55
			c0.19,0.08,0.38,0.16,0.58,0.24c0.7,0.29-0.73-0.32-0.04-0.02c1.85,0.81,3.69,1.63,5.51,2.51c3.6,1.74,7.13,3.65,10.56,5.72
			c1.57,0.95,3.12,1.93,4.62,2.97c0.38,0.26,0.75,0.53,1.12,0.8c0.16,0.12,0.32,0.23,0.47,0.35c0.13,0.09,0.8,0.61,0.28,0.2
			c-0.49-0.38,0.04,0.03,0.11,0.09c0.2,0.17,0.41,0.33,0.61,0.49c0.4,0.33,0.8,0.67,1.19,1.02c1.37,1.21,2.66,2.51,3.84,3.91
			c0.13,0.15,0.24,0.31,0.37,0.45c0.47,0.55-0.47-0.67-0.06-0.08c0.26,0.38,0.54,0.74,0.79,1.12c0.51,0.77,0.99,1.56,1.42,2.37
			c0.22,0.41,0.43,0.83,0.62,1.25c0.07,0.15,0.39,0.94,0.15,0.32c-0.22-0.58,0.01,0.04,0.04,0.13c0.32,0.92,0.63,1.83,0.87,2.78
			c0.08,0.3,0.7,2.3,0.49,2.47c0.07-0.05-0.1-0.98-0.03-0.18c0.02,0.19,0.04,0.39,0.06,0.58c0.05,0.52,0.08,1.03,0.09,1.55
			c0.03,0.91,0.02,1.82-0.03,2.73c-0.03,0.46-0.06,0.91-0.11,1.37c-0.02,0.2-0.05,0.39-0.06,0.59c-0.07,0.74,0.21-1.23-0.01,0.04
			c-0.31,1.82-0.72,3.61-1.29,5.37c-0.27,0.84-0.52,1.83-0.95,2.6c0.47-0.85-0.02,0.04-0.2,0.43c-0.19,0.42-0.39,0.83-0.6,1.24
			c-0.85,1.68-1.82,3.29-2.91,4.82c-0.19,0.27-0.93,1.24-0.33,0.48c-0.3,0.38-0.6,0.75-0.91,1.13c-0.62,0.74-1.26,1.45-1.92,2.15
			c-1.36,1.43-2.82,2.77-4.34,4.03c-0.37,0.3-0.74,0.6-1.11,0.9c-0.44,0.36,0.16-0.12,0.21-0.16c-0.22,0.16-0.43,0.33-0.65,0.49
			c-0.76,0.57-1.54,1.11-2.33,1.65c-1.63,1.1-3.3,2.14-5.01,3.12c-3.48,2-7.08,3.8-10.72,5.48c-0.89,0.41-1.79,0.82-2.69,1.22
			c-0.48,0.21-0.97,0.43-1.45,0.64c-0.28,0.12-0.56,0.24-0.83,0.36c-0.38,0.16-0.52,0.22-0.06,0.03c-1.95,0.82-3.91,1.6-5.88,2.35
			c-4,1.53-8.05,2.93-12.14,4.21c-8.17,2.56-16.47,4.66-24.85,6.41c-8.4,1.76-16.86,3.18-25.36,4.39c-0.97,0.14-1.94,0.27-2.91,0.41
			c-0.3,0.04-0.6,0.08-0.9,0.12c0.08-0.01,0.8-0.11,0.21-0.03c-0.6,0.08-1.2,0.16-1.79,0.24c-2.17,0.28-4.34,0.55-6.51,0.82
			c-4.19,0.51-8.38,0.98-12.57,1.44c-4.18,0.46-8.37,0.89-12.55,1.33c-2.59,0.27-5.13,2.11-5,5c0.11,2.48,2.21,5.29,5,5
			c17.96-1.87,35.94-3.78,53.73-6.9c17.45-3.06,34.76-7.34,51.23-13.93c15.72-6.29,32.87-14.2,42.23-29.06
			c4.37-6.94,6.93-15.6,6.26-23.83c-0.71-8.83-4.9-16.55-11.51-22.4c-6.18-5.47-13.59-9.63-20.99-13.21
			c-7.62-3.68-15.56-6.71-23.7-9.01c-16-4.5-32.78-6.3-49.37-5.97c-16.81,0.34-33.6,2.8-49.91,6.82
			c-15.25,3.76-31.38,8.6-42.88,19.87C23.21,43.07,18.18,51.35,18,60.43c-0.18,9.17,4.49,17.69,9.8,24.84
			c10.06,13.57,23.45,23.83,37.46,33.04c3.3,2.17,6.63,4.28,9.96,6.4c2.21,1.4,5.61,0.54,6.84-1.79
			C83.36,120.45,82.63,117.58,80.26,116.08L80.26,116.08z"/>
	</g>
<!-- </g> -->
</svg>
