<?xml version="1.0" encoding="utf-8"?>
<!-- Generator: Adobe Illustrator 24.0.1, SVG Export Plug-In . SVG Version: 6.00 Build 0)  -->
<svg version="1.1" id="圖層_1" xmlns="http://www.w3.org/2000/svg" xmlns:xlink="http://www.w3.org/1999/xlink" x="0px" y="0px"
	 viewBox="0 0 317 288" style="enable-background:new 0 0 317 288;" xml:space="preserve">
<style type="text/css">
	.st0{enable-background:new    ;}
	.st1{fill:#FBFEF9;stroke:#000000;stroke-width:20;stroke-miterlimit:10;}
	.st2{fill:#0E79B2;}
	.st3{fill:#191923;}
	.st4{fill:#FBFEF9;}
	.st5{fill:#F39237;}
</style>
<g>
	<g class="st0">
		<path d="M129.7,157.5c3-1.5,7.6-2.8,13.9-4.1c6.2-1.3,12.4-2,18.7-2c9,0,16.9,1.1,23.8,3.1c6.9,2.1,11.3,5.4,13.3,9.8
			c3.2,7.4,6.7,16.1,10.4,26c3.7,9.9,7.5,20,11.3,30.6c3.8,10.5,7.4,20.9,11,31.2c3.6,10.3,6.7,19.2,9.4,27.1
			c-2.1,2.1-5.4,3.6-9.7,4.8c-4.3,1.2-9.4,1.9-15.3,1.9c-4.3,0-7.9-0.3-10.9-0.9c-2.9-0.6-5.4-1.5-7.2-2.5c-1.9-1.2-3.4-2.6-4.6-4.5
			c-1.2-1.9-2.1-4-3.1-6.4l-4.9-14.8h-48.6c-1.5,4.3-2.8,8.7-4.3,13.3c-1.5,4.6-2.8,9-4.3,13.3c-2.5,0.7-5.2,1.4-7.9,1.9
			c-2.7,0.5-6.2,0.8-10.1,0.8c-9.2,0-15.9-1.3-20.3-3.7c-4.4-2.5-6.5-6-6.5-10.4c0-2,0.4-4,1.1-6.1c0.7-2,1.6-4.4,2.4-7
			c1.3-3.9,3-8.7,5.3-14.4c2.2-5.8,4.7-11.9,7.4-18.6c2.7-6.6,5.6-13.5,8.6-20.5c3-7,6-13.7,8.6-19.8c2.7-6.2,5.2-11.7,7.4-16.6
			C126.7,163.8,128.4,160.1,129.7,157.5z M161.9,185.2c-2.5,6.1-5.4,12.7-8.5,20c-3.1,7.3-6,14.8-8.5,22.5h33.3
			c-2.5-7.7-5.1-15.2-7.6-22.7c-2.6-7.3-5-14-7.1-19.8H161.9z"/>
	</g>
	<path class="st1" d="M263.7,236.8h-210c-22.9,0-41.5-26.6-41.5-59.3V71.8c0-32.7,18.6-59.3,41.5-59.3h209.9
		c22.9,0,41.5,26.6,41.5,59.3v105.8C305.1,210.3,286.5,236.8,263.7,236.8z"/>
	<g class="st0">
		<path d="M93.1,133.9c-2,0-4.2-0.1-6.9-0.2c-2.6-0.1-5.4-0.3-8.2-0.5c-2.8-0.3-5.6-0.6-8.4-1.1s-5.3-1-7.6-1.7
			c-6.3-2-9.5-5.3-9.5-10.1V55.6c0-2,0.7-3.4,2-4.5c1.3-1.1,3.1-1.9,5.4-2.6c3.9-1.1,8.8-1.9,14.6-2.4c5.9-0.5,11.9-0.8,18.1-0.8
			c14.7,0,26,2,33.9,6c7.9,3.9,11.9,10.1,11.9,18.4c0,4.2-1.5,7.8-4.4,10.7c-3,3-7,5.2-12.1,6.6c5.7,1.3,10.6,3.7,14.4,7.1
			c3.8,3.4,5.8,7.7,5.8,12.9c0,9.1-4.2,15.9-12.7,20.3C121.1,131.6,108.9,133.9,93.1,133.9z M81.9,80.5h12.6c4.9,0,8.5-0.7,10.8-2.2
			s3.4-3.7,3.4-6.5c0-2.5-1.3-4.5-3.8-6s-6.5-2.2-11.6-2.2c-1.7,0-3.7,0.1-6,0.2c-2.3,0.1-4,0.3-5.3,0.4L81.9,80.5L81.9,80.5z
			 M81.9,114.3c1.6,0.4,3.7,0.6,6.2,0.8c2.5,0.2,4.9,0.2,7.2,0.2c4.6,0,8.4-0.8,11.5-2.3c3-1.5,4.6-3.9,4.6-7.1c0-3-1.3-5.2-3.8-6.5
			c-2.6-1.3-6.4-2-11.5-2H81.9V114.3z"/>
	</g>
	<g class="st0">
		<path class="st2" d="M89.1,132.4c-2,0-4.2-0.1-6.9-0.2c-2.6-0.1-5.4-0.3-8.2-0.5c-2.8-0.3-5.6-0.6-8.4-1.1c-2.8-0.4-5.3-1-7.6-1.7
			c-6.3-2-9.5-5.3-9.5-10.1V54.2c0-2,0.7-3.4,2-4.5c1.3-1.1,3.1-1.9,5.4-2.6c3.9-1.1,8.8-1.9,14.6-2.4c5.9-0.5,11.9-0.8,18.1-0.8
			c14.7,0,26,2,33.9,6c7.9,3.9,11.9,10.1,11.9,18.4c0,4.2-1.5,7.8-4.4,10.7c-3,3-7,5.2-12.1,6.6c5.7,1.3,10.6,3.7,14.4,7.1
			c3.8,3.4,5.8,7.7,5.8,12.9c0,9.1-4.2,15.9-12.7,20.3S104.9,132.4,89.1,132.4z M77.9,79.1h12.6c4.9,0,8.5-0.7,10.8-2.2
			s3.4-3.7,3.4-6.5c0-2.5-1.3-4.5-3.8-6s-6.5-2.2-11.6-2.2c-1.7,0-3.7,0.1-6,0.2c-2.3,0.1-4,0.3-5.3,0.4L77.9,79.1L77.9,79.1z
			 M77.9,112.9c1.6,0.4,3.7,0.6,6.2,0.8c2.5,0.2,4.9,0.2,7.2,0.2c4.6,0,8.4-0.8,11.5-2.3c3-1.5,4.6-3.9,4.6-7.1c0-3-1.3-5.2-3.8-6.5
			c-2.6-1.3-6.4-2-11.5-2H77.9V112.9z"/>
	</g>
	<path class="st3" d="M171.7,133l35.8,62.5c4.8,8.3-1.1,18.7-10.5,18.7h-71.7c-9.4,0-15.3-10.4-10.5-18.7l35.8-62.5
		C155.3,124.8,166.9,124.8,171.7,133z"/>
	<path class="st4" d="M166.3,162l13.9,24.7c2.2,4-0.6,9.1-5.2,9.1h-27.8c-4.6,0-7.4-5.1-5.2-9.1l13.9-24.7
		C158.2,158,164,158,166.3,162z"/>
	<g>
		<g class="st0">
			<path class="st5" d="M259,137.5c-2.6,0.3-6.6,0.6-12,0.9c-5.5,0.3-10.9,0.5-16.2,0.5c-5.4,0-10.1-0.2-14.1-0.5
				c-4-0.4-7.5-1-10.3-1.9c-2.8-0.9-4.9-2.1-6.3-3.8c-1.3-1.6-2.1-3.7-2.1-6.3V46.7c2.6-0.2,6.6-0.5,12.3-0.9
				c5.5-0.4,10.9-0.5,16.1-0.5c5.4,0,10.1,0.2,14.1,0.5c4,0.4,7.5,1,10.3,1.9c2.8,0.9,4.9,2.1,6.3,3.8c1.3,1.6,2.1,3.7,2.1,6.3v79.7
				H259z"/>
		</g>
		<rect x="198.2" y="52.2" width="22.7" height="5.6"/>
		<rect x="198.2" y="118" width="22.7" height="5.6"/>
		<rect x="198.2" y="85.4" width="22.7" height="5.6"/>
		<rect x="198.2" y="68.7" width="22.7" height="5.6"/>
		<rect x="198.2" y="102" width="22.7" height="5.6"/>
	</g>
</g>
</svg>
