<svg viewBox="0 0 1024 1024"  ><path d="M741.73 566.311c-3.15-10.476-11.933-18.195-22.606-20.007l-98.265-16.738L733.893 423.66c7.916-7.443 10.988-18.747 7.837-29.144-3.15-10.398-11.933-18.157-22.606-19.968l-98.265-16.7 113.034-105.944c7.916-7.444 10.988-18.747 7.837-29.145-3.15-10.397-11.933-18.156-22.606-19.968L351.429 140.17c-7.798-1.34-15.911 0.67-22.252 5.514L11.225 389.632C2.52 396.288-1.575 407.355 0.59 418.068a28.692 28.692 0 0 0 20.913 22.016l110.631 28.593-120.871 92.79C2.56 568.123-1.536 579.151 0.63 589.903a28.692 28.692 0 0 0 20.913 22.016l110.632 28.632-120.911 92.751C2.56 739.958-1.536 750.946 0.63 761.738a28.7 28.7 0 0 0 20.913 21.976l385.615 99.762c2.363 0.67 4.766 0.906 7.168 0.906 7.208 0 14.218-2.679 19.614-7.72l300.032-281.167c7.837-7.483 10.91-18.786 7.758-29.184zM354.107 198.656l298.535 50.806-246.468 230.952L92.672 399.28l261.435-200.625z m-151.67 288.217l204.642 52.933c2.363 0.67 4.766 0.905 7.168 0.905 7.208 0 14.218-2.678 19.614-7.719l134.498-126.07 84.323 14.375-246.47 230.952-313.5-81.133 109.725-84.243z"></path><path d="M929.674 629.563c-4.687-122.604-75.422-226.304-179.16-278.213 51.83 75.461 84.873 165.022 84.873 264.113v14.1h-94.326l141.43 188.613L1024 629.563h-94.326z"></path></svg>