<svg viewBox="0 0 1025 1024" ><path d="M752.175262 567.059692c-3.190154-10.633846-12.091077-18.471385-22.921846-20.322462l-99.682462-16.974769 114.648615-107.441231c8.034462-7.561846 11.145846-18.983385 7.955692-29.538462s-12.091077-18.432-22.921846-20.243692l-99.721846-16.974769L744.219569 248.123077c8.034462-7.561846 11.145846-18.983385 7.955692-29.538462-3.190154-10.555077-12.091077-18.392615-22.921846-20.243692L356.359877 134.892308C348.443569 133.513846 340.212185 135.561846 333.792492 140.445538L11.350646 387.859692c-8.822154 6.734769-12.996923 17.92-10.752 28.829538 2.205538 10.870154 10.436923 19.534769 21.188923 22.291692l112.167385 29.026462-122.604308 94.089846c-8.822154 6.774154-12.996923 17.92-10.752 28.829538C2.804185 601.796923 10.996185 610.461538 21.787569 613.218462L133.915569 642.284308l-122.564923 94.089846c-8.822154 6.734769-12.996923 17.92-10.752 28.790154 2.205538 10.830769 10.436923 19.495385 21.188923 22.291692l391.049846 101.139692c2.402462 0.669538 4.844308 0.905846 7.246769 0.905846 7.286154 0 14.414769-2.717538 19.849846-7.837538l304.285538-285.105231C752.254031 589.036308 755.365415 577.614769 752.175262 567.059692zM205.280492 486.478769l207.517538 53.720615c2.402462 0.630154 4.844308 0.905846 7.246769 0.905846 7.286154 0 14.414769-2.756923 19.849846-7.837538l136.428308-127.842462 85.464615 14.532923-249.934769 234.220308-317.952-82.274462L205.280492 486.478769zM411.892185 828.416l-317.952-82.274462 111.340308-85.425231 207.556923 53.681231c2.402462 0.669538 4.844308 0.905846 7.246769 0.905846 7.286154 0 14.414769-2.717538 19.849846-7.837538l136.428308-127.803077 85.464615 14.532923L411.892185 828.416z"></path><path d="M880.529723 349.105231l-143.438769 191.291077 95.625846 0c0 4.765538 0 9.570462 0 14.296615 0 100.470154-33.516308 191.291077-86.055385 267.815385 105.196308-52.617846 176.876308-157.814154 181.641846-282.112L1024.007877 540.396308 880.529723 349.105231z"></path></svg>