<svg fill-rule="evenodd" clip-rule="evenodd" viewBox="0 0 1024 1024" ><path d="M525.611507 165.558663l325.645708 162.893974c5.817496 2.692319 9.887184 7.346315 12.941753 12.364609l0 0 90.75498 161.948439c8.29185 14.68956 2.90926 33.232892-11.779278 41.741683-1.308809 0.073678-2.182712 0.87288-3.054569 1.164522L868.125395 581.523423 868.125395 763.54299c0 12.508895-7.852852 24.287149-19.052938 28.142967L525.611507 953.49011c-8.872065 4.581342-19.34458 4.071735-27.343765 0L172.76939 790.595113c-10.907421-5.092995-17.016559-15.925714-17.016559-27.053146l-0.145309 0L155.607522 581.523423l-73.883731-36.942377c-14.83487-7.417947-20.944008-26.034956-13.236466-40.724517l0.436952-1.089821 0 0 90.610694-161.948439c3.635807-5.962805 8.871041-10.616802 14.980179-13.236466l323.752592-162.022117C507.140831 161.196309 517.031085 161.558559 525.611507 165.558663L525.611507 165.558663zM493.468436 883.023198 493.468436 883.023198 493.468436 588.649727l-50.03251 90.246397c-4.799306 8.653077-16.143679 11.7056-24.725124 6.762007l-0.435928 0-201.436802-100.500948 0 159.477154L493.468436 883.023198 493.468436 883.023198zM493.468436 488.803695 493.468436 488.803695 493.468436 236.387825 240.836649 362.487801 493.468436 488.803695 493.468436 488.803695zM530.265504 236.387825 530.265504 236.387825l0 252.269537 252.77812-126.169561L530.265504 236.387825 530.265504 236.387825zM530.265504 589.158311 530.265504 589.158311l0 293.864888 277.066293-138.387837L807.331797 584.79391 605.603353 685.659155l-0.289596 0c-8.726755 4.943592-19.925818 1.89107-24.870434-6.762007L530.265504 589.158311 530.265504 589.158311zM819.113121 385.394511 819.113121 385.394511l-282.012955 140.713812 66.614164 119.625518 282.591123-141.442406L819.113121 385.394511 819.113121 385.394511zM202.43913 536.579815 202.43913 536.579815l217.581504 109.155049 66.757426-119.625518L204.912461 385.394511l-66.903759 119.188566 59.195194 29.52443C199.240275 534.908756 200.985012 535.998577 202.43913 536.579815L202.43913 536.579815z"></path></svg>