<?xml version="1.0" encoding="iso-8859-1"?>
<!-- Generator: Adobe Illustrator 19.0.0, SVG Export Plug-In . SVG Version: 6.00 Build 0)  -->
<svg version="1.1" id="Capa_1" xmlns="http://www.w3.org/2000/svg" xmlns:xlink="http://www.w3.org/1999/xlink" x="0px" y="0px"
	 viewBox="0 0 512 512" style="enable-background:new 0 0 512 512;" xml:space="preserve">
<g>
	<g>
		<path d="M502.637,9.434C485.162-8.042,452.027-1.284,401.339,30.095c-43.017,26.63-93.666,68.253-142.614,117.202
			c-49.998,49.997-74.487,83.877-98.511,125.324c-14.154-2.378-28.749,1.938-39.352,12.54
			c-12.819,12.818-16.258,31.507-10.344,47.489l-81.505,45.18c-3.852,2.136-6.571,5.856-7.436,10.175L0.369,494.054
			c-2.096,10.48,7.162,19.746,17.648,17.647l106.049-21.21c4.319-0.864,8.041-3.582,10.176-7.435l45.18-81.504
			c16.054,5.942,34.705,2.441,47.489-10.344c10.639-10.639,14.814-25.322,12.549-39.145c22.777-12.256,34.898-18.014,60.062-38.736
			c17.249,10.154,39.86,7.83,54.647-6.959l106.048-106.048c21.437-21.435,27.633-53.695,16.461-81.251
			C496.18,89.042,527.727,34.524,502.637,9.434z M111.375,462.441l-50.669,10.134l28.604-28.604c5.857-5.856,5.857-15.353,0-21.21
			c-5.855-5.856-15.352-5.857-21.21,0l-28.604,28.603l10.133-50.668l79.224-43.916l26.436,26.437L111.375,462.441z M205.702,370
			c-5.848,5.847-15.361,5.849-21.211,0l-42.419-42.419c-5.848-5.848-5.848-15.364,0-21.211c5.861-5.861,15.348-5.861,21.21,0
			l42.42,42.42C211.55,354.639,211.55,364.153,205.702,370z M446.426,125.241c9.854,17.497,6.804,39.65-7.418,53.871L332.96,285.161
			c-5.849,5.849-15.362,5.847-21.211,0c-5.862-5.862-5.862-15.346,0-21.21l106.049-106.049c5.857-5.856,5.857-15.353,0-21.21
			c-5.856-5.857-15.353-5.856-21.21,0L290.54,242.741c-12.906,12.905-16.315,31.636-10.32,47.629
			c-23.465,19.296-35.28,24.681-55.146,35.372l-38.618-38.619c19.811-34.329,41.783-66.921,93.479-118.617
			c46.001-46,93.601-85.396,134.032-110.932c45.768-28.905,64.688-28.622,67.454-26.924c1.963,3.164,1.761,25.183-34.368,78.855
			c-0.034,0.05-0.06,0.104-0.093,0.154C443.787,114.499,443.784,120.567,446.426,125.241z"/>
	</g>
</g>
<g>
</g>
<g>
</g>
<g>
</g>
<g>
</g>
<g>
</g>
<g>
</g>
<g>
</g>
<g>
</g>
<g>
</g>
<g>
</g>
<g>
</g>
<g>
</g>
<g>
</g>
<g>
</g>
<g>
</g>
</svg>
